<?xml version="1.0" encoding="utf-8"?>
<!-- Generator: Adobe Illustrator 15.0.0, SVG Export Plug-In . SVG Version: 6.00 Build 0)  -->
<!DOCTYPE svg PUBLIC "-//W3C//DTD SVG 1.1//EN" "http://www.w3.org/Graphics/SVG/1.1/DTD/svg11.dtd">
<svg version="1.1" id="Layer_1" xmlns="http://www.w3.org/2000/svg" xmlns:xlink="http://www.w3.org/1999/xlink" x="0px" y="0px"
	 width="1028.058px" height="612px" viewBox="0 0 1028.058 612" enable-background="new 0 0 1028.058 612" xml:space="preserve">
<path fill="#231F20" d="M443.101,197.987L421.763,304h7.663l21.336-106.013H443.101z M443.101,183.205h7.662V168h-7.662V183.205z"/>
<polygon fill="#231F20" points="462.105,198 440.762,304 448.427,304 469.768,205.813 484.672,205.813 463.329,304 471.42,304 
	492.763,205.602 485.098,205.602 485.098,198 "/>
<polygon fill="#030404" points="154.083,100 154.083,215.809 137.797,215.809 137.797,331.618 121.513,331.618 121.513,215.809 
	104.762,215.809 104.762,100 87.082,100 87.082,216.272 103.832,216.272 103.832,314.478 87.082,314.478 87.082,331.618 
	71.262,331.618 71.262,215.809 54.979,215.809 54.979,100 37.763,100 37.763,216.272 54.513,216.272 54.513,332.08 71.262,332.08 
	70.798,415 88.012,415 88.012,332.08 121.047,332.08 121.047,415 138.264,415 138.264,332.08 155.014,332.08 155.014,216.272 
	171.763,216.272 171.763,100 "/>
<rect x="171.763" y="235" fill="#030404" width="17" height="145"/>
<rect x="212.763" y="235" fill="#030404" width="17" height="145"/>
<rect x="187.763" y="379" fill="#030404" width="26" height="15"/>
<rect x="187.763" y="220.001" fill="#030404" width="26" height="14.999"/>
<rect x="342.763" y="247" fill="#030404" width="17" height="44"/>
<rect x="342.763" y="406" fill="#030404" width="17" height="44"/>
<rect x="326.763" y="363.001" fill="#030404" width="16.999" height="43.999"/>
<rect x="326.763" y="290" fill="#030404" width="16.999" height="44"/>
<rect x="311.763" y="333.999" fill="#030404" width="17" height="29.001"/>
<rect x="297.763" y="176" fill="#030404" width="17" height="274"/>
<rect x="246.763" y="147" fill="#030404" width="17" height="202"/>
<rect x="264.763" y="163" fill="#030404" width="17" height="15"/>
<rect x="279.763" y="147" fill="#030404" width="17" height="15"/>
<rect x="359.763" y="322" fill="#030404" width="17" height="57"/>
<rect x="375.763" y="378" fill="#030404" width="17" height="29"/>
<rect x="405.763" y="436" fill="#030404" width="17" height="57"/>
<rect x="388.763" y="408" fill="#030404" width="17" height="29"/>
<rect x="359.763" y="465" fill="#030404" width="17" height="29"/>
<rect x="376.763" y="494" fill="#030404" width="29" height="17"/>
<rect x="404.763" y="322" fill="#030404" width="17" height="29"/>
<rect x="376.763" y="305" fill="#030404" width="29" height="17"/>
<path fill="#231F20" d="M525.094,116.871h30.897v171.735h-30.897V116.871z M508.763,100v332h16.331V305.034h31.779v-15.983h15.89
	V116.427h-15.89V100H508.763z"/>
<rect x="572.763" y="305" fill="#231F20" width="16" height="193"/>
<rect x="589.763" y="319" fill="#231F20" width="16" height="14"/>
<rect x="603.763" y="305" fill="#231F20" width="16" height="14"/>
<polygon fill="#231F20" points="620.763,184 620.781,289 636.763,289 636.744,184 "/>
<polygon fill="#231F20" points="653.763,184 653.78,289 669.763,289 669.744,184 "/>
<rect x="637.763" y="288" fill="#231F20" width="16" height="14"/>
<rect x="637.763" y="172" fill="#231F20" width="16" height="14"/>
<rect x="687.763" y="214" fill="#231F20" width="15.999" height="151"/>
<rect x="702.763" y="364.001" fill="#231F20" width="12.001" height="15.999"/>
<rect x="703.763" y="410" fill="#231F20" width="12.001" height="16"/>
<rect x="687.763" y="395" fill="#231F20" width="15.999" height="16"/>
<rect x="701.763" y="197" fill="#231F20" width="14" height="16"/>
<rect x="715.763" y="197" fill="#231F20" width="16" height="213"/>
<rect x="748.763" y="271.999" fill="#231F20" width="16" height="118.001"/>
<rect x="764.763" y="286" fill="#231F20" width="16" height="14"/>
<rect x="779.763" y="272" fill="#231F20" width="16" height="14"/>
<rect x="812.763" y="186" fill="#231F20" width="15.999" height="164"/>
<rect x="856.763" y="185" fill="#231F20" width="16" height="96"/>
<rect x="828.763" y="264.001" fill="#231F20" width="39.001" height="15.999"/>
<rect x="856.763" y="311" fill="#231F20" width="16" height="39"/>
<rect x="828.763" y="349" fill="#231F20" width="28" height="16"/>
<rect x="828.763" y="169" fill="#231F20" width="28" height="16"/>
<rect x="871.763" y="365" fill="#231F20" width="16" height="38"/>
<rect x="882.763" y="403" fill="#231F20" width="16" height="19"/>
<rect x="889.763" y="477" fill="#231F20" width="19" height="16"/>
<rect x="873.763" y="458" fill="#231F20" width="16" height="19"/>
<rect x="889.763" y="349" fill="#231F20" width="19" height="16"/>
<rect x="908.763" y="365" fill="#231F20" width="16" height="19"/>
<rect x="906.763" y="439" fill="#231F20" width="16" height="38"/>
<rect x="897.763" y="421" fill="#231F20" width="16" height="19"/>
<rect x="940.763" y="199" fill="#231F20" width="16" height="69"/>
<rect x="954.763" y="268" fill="#231F20" width="16" height="42"/>
<rect x="984.763" y="349" fill="#231F20" width="15.999" height="82"/>
<rect x="969.763" y="308" fill="#231F20" width="16" height="42"/>
<rect x="940.763" y="390" fill="#231F20" width="16" height="42"/>
<rect x="955.763" y="431" fill="#231F20" width="28.001" height="16"/>
<rect x="983.763" y="198" fill="#231F20" width="15.999" height="42"/>
<rect x="955.763" y="183.001" fill="#231F20" width="28.001" height="15.999"/>
</svg>
